<?xml version="1.0" encoding="UTF-8"?>
<svg viewBox="0 0 640 480" xmlns="http://www.w3.org/2000/svg">
 <g stroke-linejoin="round">
  <path d="m536 458.86h-496.92l124.23-215.17 124.23-215.17 124.23 215.17 124.23 215.17z" fill="#ff0" stroke="#000" stroke-linecap="round" stroke-miterlimit="24.3" stroke-width="27.82"/>
  <g stroke-width="10">
   <path d="m278.05 364.78c-3.8985 0.57498-8.5511 3.0549-12.183 5.4369-3.6318 2.382-6.8885 5.0286-9.3328 8.4083-2.4443 3.3796-2.9924 7.7783-3.8762 11.654-0.88379 3.8757-1.1735 7.0451 0.36681 11.348 1.5403 4.3025 4.3872 10.085 7.6709 13.56 3.2837 3.4746 5.6139 7.1225 9.9716 8.648 4.3577 1.5254 9.4439 3.6424 13.78 4.3807 4.3361 0.73834 7.5317-0.66696 11.814-1.8834 4.282-1.2164 9.7872-3.5027 13.377-6.1456 3.5895-2.6428 5.5788-5.6775 7.7593-8.7808s2.8248-6.0909 3.0103-9.8639c0.18561-3.7729-0.50198-7.5034-2.9394-11.012-2.4374-3.5087-5.0237-7.9557-7.865-11.575-2.8413-3.6196-6.2355-6.9056-9.8976-8.8742-3.662-1.9685-7.8178-3.6263-11.463-4.6314-3.6454-1.005-6.2939-1.2436-10.192-0.66861z"/>
   <path d="m277.79 159.12c-3.8989 0.59337-10.483 1.3294-15.289 2.7892-4.8052 1.4598-9.5569 4.2084-13.19 8.8988-3.6332 4.6903-6.3874 10.505-8.3937 17.665-2.0064 7.1595-3.2826 12.597-2.9978 22.845 0.28473 10.248 2.105 24.222 4.1968 37.056 2.0919 12.834 4.1997 28.012 6.8949 40.775s7.2976 24.113 10.76 33.086c3.4623 8.9721 6.673 16.341 9.856 20.639 3.183 4.2979 4.5033 5.9557 7.8627 7.7701s7.9917 3.1133 12.051 2.7892c4.0593-0.32419 8.0497-6.6639 11.12-10.158 3.0699-3.494 7.4379-17.394 10.877-30.233 3.4392-12.839 6.8358-21.012 11.285-42.009 4.4488-20.997 9.0321-52.3 11.146-66.223 2.1134-13.923 1.0509-13.125-1.0468-19.341-2.0978-6.2158-5.8431-10.055-9.4453-13.598-3.6023-3.5428-5.5746-5.6742-11.886-7.6257-6.3113-1.9514-10.822-3.2794-16.458-3.9729s-13.443-1.7453-17.342-1.152z"/>
  </g>
 </g>
</svg>
