<?xml version="1.0" encoding="UTF-8"?>
<svg enable-background="new 0 0 144 144" version="1.1" viewBox="0 0 144 144" xmlns="http://www.w3.org/2000/svg">
 <style type="text/css">.st0{fill:#00A5CB;} .st1{fill:#0190B0;} .st2{fill:#FFFFFF;}</style>
 <circle class="st0" cx="70.9" cy="72" r="70"/>
 <path class="st1" d="m72.6 2c38.7 0 70 31.3 70 70s-31.3 70-70 70"/>
 <path class="st2" d="m59.2 98.4c-4.4 4.4-11.7 4.4-16.1 0s-4.4-11.7 0-16.1l17.2-17.3-4.2-4.2-17.2 17.3c-6.8 6.8-6.8 17.8 0 24.6s17.8 6.8 24.6 0l17.2-17.2-4.2-4.2-17.3 17.1z"/>
 <path class="st2" d="m83.1 74.4l4.2 4.2 17.2-17.2c6.8-6.8 6.8-17.8 0-24.6s-17.8-6.8-24.6 0l-17.1 17.3 4.2 4.2 17.2-17.2c4.4-4.4 11.7-4.4 16.1 0s4.4 11.7 0 16.1l-17.2 17.2z"/>
 <polygon class="st2" points="36 48.8 35.9 58.5 52.7 53.4"/>
 <polygon class="st2" points="44.2 37.2 40.5 41.1 52 48.8"/>
 <polygon class="st2" points="59.7 38.1 53.8 34.5 56 50.1"/>
 <polygon class="st2" points="108 89.7 108.1 80.1 91.2 85.1"/>
 <polygon class="st2" points="99.8 101.3 103.5 97.4 92 89.7"/>
 <polygon class="st2" points="84.2 100.4 90.2 104 87.9 88.4"/>
</svg>
