<?xml version="1.0" encoding="UTF-8"?>
<svg viewBox="0 0 469.4906 432.34393" xmlns="http://www.w3.org/2000/svg">
 <g transform="translate(-155.06 -160.11)">
  <path d="m414.31 526.57s165.55-149.99 203.74-23.961" fill="none" stroke="#000" stroke-linecap="round" stroke-width="12.997"/>
  <path d="m398.71 457.92s165.55-149.99 203.74-23.961" fill="none" stroke="#000" stroke-linecap="round" stroke-width="12.997"/>
  <path d="m398.71 398.63s165.55-149.99 203.74-23.961" fill="none" stroke="#000" stroke-linecap="round" stroke-width="12.997"/>
  <path d="m398.01 392.22c0 44.586 2.3791 129.62 0 173.41-0.3889 31.455 55.746 15.479 88.35-29.173 34.812-26.273 43.798-143.83 27.443-143.44-37.012-7.1373-84.333-7.1373-115.79-0.79303z" fill="#f6c92b"/>
  <path d="m365.3 517.2s-165.55-149.99-203.74-23.961" fill="none" stroke="#000" stroke-linecap="round" stroke-width="12.997"/>
  <path d="m368.42 454.8s-165.55-149.99-203.74-23.961" fill="none" stroke="#000" stroke-linecap="round" stroke-width="12.997"/>
  <path d="m265.12 393.75c-21.707 43.963 2.8935 128.38 37.652 155.37 27.229 24.801 28.541 31.341 61.662 33.424 44.868-36.451 30.972-37.856 28.816-91.148v-97.643c-45.089-7.9303-83.833-8.7233-128.13-4e-5z" fill="#799ccf"/>
  <path d="m385.8 212.07c-45.658 0-82.73 27.594-82.73 61.59 0 8.653 2.4256 16.867 6.7577 24.34l80.773 42.012 72.743-44.935c3.3321-6.676 5.1536-13.88 5.1536-21.417 0-33.996-37.039-61.59-82.696-61.59z" stroke="#000" stroke-linejoin="round" stroke-width=".60061"/>
  <path d="m366.93 280.47s-44.691-149.07-135.95-96.989" fill="none" stroke="#000" stroke-linecap="round" stroke-width="13.929"/>
  <path d="m403.63 275.11s44.691-149.07 135.95-96.989" fill="none" stroke="#000" stroke-linecap="round" stroke-width="13.929"/>
  <path d="m375.22 386.57s-165.55-149.99-203.74-23.961" fill="none" stroke="#000" stroke-linecap="round" stroke-width="12.997"/>
  <path d="m525.08 405.2c1.2177 12.114 1.6688 30.557-77.806 5.18-17.08-5.4537-44.479 6.3022-50.961 7.8222-15.051 3.53-20.669-67.784-20.669-80.569 0-25.569-36.491-46.645-0.63244-46.645 17.929 0 62.745 2.8336 94.189 26.195s54.662 75.902 55.88 88.016z" fill="#76b76b"/>
  <path d="m390.58 418.91c0.39943 9.0793-31.104 9.2943-55.137 10.358-35.996 1.5933-82.771 17.405-83.171 15.24-3.7682-20.421 20.23-98.469 65.557-128.11 31.438-20.562 56.547-30.044 57.139-20.335 0.8699 14.269 3.499 34.298 3.9239 42.165 0.36767 6.808 8.493 59.126 11.688 80.686z" fill="#ee8d49"/>
  <path transform="matrix(.87981 .22325 -.46537 1.1466 229.1 -153.93)" d="m354.29 373.79c0 11.835-12.152 21.429-27.143 21.429s-27.143-9.5939-27.143-21.429 12.152-21.429 27.143-21.429 27.143 9.5939 27.143 21.429z" fill="#fff"/>
  <path transform="matrix(.89131 -.10242 .21567 1.1376 61.677 -43.482)" d="m354.29 373.79c0 11.835-12.152 21.429-27.143 21.429s-27.143-9.5939-27.143-21.429 12.152-21.429 27.143-21.429 27.143 9.5939 27.143 21.429z" fill="#fff"/>
  <path d="m375.24 296.26c46.806 277.72 12.482 271.48 12.482 271.48" fill="none" stroke="#000" stroke-linecap="round" stroke-width="11.795"/>
  <path transform="matrix(.92574 0 0 1.2657 41.624 -49.276)" d="m354.29 373.79c0 11.835-12.152 21.429-27.143 21.429s-27.143-9.5939-27.143-21.429 12.152-21.429 27.143-21.429 27.143 9.5939 27.143 21.429z" fill="#000001"/>
  <path transform="matrix(.92574 0 0 1.3264 -5.1402 -16.257)" d="m354.29 373.79c0 11.835-12.152 21.429-27.143 21.429s-27.143-9.5939-27.143-21.429 12.152-21.429 27.143-21.429 27.143 9.5939 27.143 21.429z"/>
  <path transform="matrix(.84596 0 0 1.1243 74.649 110.59)" d="m354.29 373.79c0 11.835-12.152 21.429-27.143 21.429s-27.143-9.5939-27.143-21.429 12.152-21.429 27.143-21.429 27.143 9.5939 27.143 21.429z"/>
  <path transform="matrix(.92574 0 0 1.3264 131.55 30.823)" d="m354.29 373.79c0 11.835-12.152 21.429-27.143 21.429s-27.143-9.5939-27.143-21.429 12.152-21.429 27.143-21.429 27.143 9.5939 27.143 21.429z"/>
  <path transform="matrix(.92574 0 0 1.3264 179.14 -23.381)" d="m354.29 373.79c0 11.835-12.152 21.429-27.143 21.429s-27.143-9.5939-27.143-21.429 12.152-21.429 27.143-21.429 27.143 9.5939 27.143 21.429z"/>
  <path transform="matrix(.90978 0 0 1.2253 136.06 -33.4)" d="m354.29 373.79c0 11.835-12.152 21.429-27.143 21.429s-27.143-9.5939-27.143-21.429 12.152-21.429 27.143-21.429 27.143 9.5939 27.143 21.429z"/>
  <path d="m389.81 289.66c-74.939 0-135.75 67.055-135.75 149.67 0 72.916 47.371 133.7 110.02 146.97l26.113-20.575 21.676 21.296c64.461-11.627 113.7-73.352 113.7-147.69 0-82.616-60.815-149.67-135.75-149.67z" fill="none" stroke="#000" stroke-linecap="round" stroke-linejoin="round" stroke-width="10.881"/>
 </g>
</svg>
