<?xml version="1.0" encoding="UTF-8"?>
<svg viewBox="0 0 500 500" xmlns="http://www.w3.org/2000/svg">
 <path transform="matrix(1.0901 0 0 1.1228 -42.914 -67.947)" d="m177.5 471.25s-72.5-10-90-21.25-27.5-12.5-36.25-37.5c-2.5-27.5-10-41.25 0-60s33.75-35 48.75-51.25 167.5-127.5 177.5-132.5c5-1.25 17.5-11.25 38.75-15 20-2.5 38.75-6.25 65-6.25s55 8.75 71.25 13.75l16.25 5" fill="#88a3bd" fill-rule="evenodd" stroke="#000" stroke-linejoin="round" stroke-width="11.299"/>
 <path transform="matrix(1.0901 0 0 1.1228 -42.914 -67.947)" d="m163.75 348.75c15-16.25 180-157.5 228.75-171.25s71.25-20 80-7.5 17.5 30 17.5 41.25-3.75 46.25-3.75 46.25-283.75 207.5-290 208.75-13.75 13.75-25-2.5-26.25-22.5-26.25-52.5c3.75-35 6.25-50 18.75-62.5z" fill="#6f93b4" fill-rule="evenodd" stroke="#000" stroke-linejoin="round" stroke-width="11.299"/>
 <path transform="matrix(1.0901 0 0 1.1228 -42.914 -67.947)" d="m186.18 233.64c2.5 0 78.821 28.855 78.821 28.855s73.75-56.25 105-75c33.75-11.25 87.5-23.75 87.5-23.75s-57.5-18.75-75-17.5c-5 0-75 6.25-85 11.25-15 5-110.07 77.395-111.32 76.145z" fill="#ffa3bd" fill-rule="evenodd" stroke="#000" stroke-linejoin="round" stroke-width="9.0389"/>
 <path transform="matrix(1.0901 0 0 1.1228 -42.914 -67.947)" d="m265 263.75 92.5 87.5s79.37-57.773 128.65-93.613c9.69-24.59 3.853-42.637 2.603-52.637s-12.5-41.25-27.5-40c-22.5 0-68.75 10-101.25 25-30 21.25-97.5 76.25-95 73.75z" fill="#e19dae" fill-rule="evenodd" stroke="#000" stroke-linejoin="round" stroke-width="9.0389"/>
 <path transform="matrix(1.0901 0 0 1.1228 -42.914 -67.947)" d="m51.25 411.27 100.01 20.023 329.97-247.48s6.2635 11.18 6.2635 12.43-331.25 250-331.25 250l-100-21.25-5-13.727z" fill="#fff" fill-rule="evenodd" stroke="#000" stroke-linejoin="round" stroke-width="9.0389"/>
 <path transform="matrix(1.0901 0 0 1.1228 -42.914 -67.947)" d="m150 435 7.5 12.5" fill="none" stroke="#000" stroke-linejoin="round" stroke-width="9.0389"/>
 <path d="m26.25 396.25c6.25-5 20-1.25 32.5-1.25s28.75 3.75 37.5 12.5 10 5 20 21.25 31.25 21.25 12.5 21.25-67.5-10-76.25-17.5-11.25-3.75-23.75-18.75c-11.25-32.5-2.5-16.25-2.5-17.5z" fill-opacity=".25" fill-rule="evenodd"/>
 <path d="m98.961 353.49c-30.845-2.57-64.261-6.426-80.968-20.563 5.1408-14.138 125.95-116.95 125.95-116.95s-137.52 114.38-44.982 137.52z" fill="#fff" fill-opacity=".5" fill-rule="evenodd"/>
</svg>
