<?xml version='1.0' encoding='utf-8'?>
<svg xmlns="http://www.w3.org/2000/svg" version="1.0" id="Layer_1" x="0px" y="0px" viewBox="0 0 841.9 595.3" style="enable-background:new 0 0 841.9 595.3;"> <style type="text/css"> .st0{fill:#B4877F;} .st1{fill:#EEC9C2;} .st2{opacity:0.25;fill:#D8BCB8;} .st3{fill:#F0D2CC;} .st4{fill:#E4A99F;} .st5{fill:#D8A197;} .st6{fill:#AFB4EE;} .st7{opacity:0.34;fill:#9A9DCE;} .st8{fill:#9A9DCE;} .st9{fill:#DDF4FF;} .st10{fill:#D09B92;} .st11{fill:#FAEFEC;} .st12{fill:#DEA097;} .st13{fill:#E7B3AA;} .st14{fill:#F2D6D1;} .st15{opacity:0.23;fill:#D7EBFF;} .st16{fill:#CEE8FF;} .st17{fill:#C5D7FF;} .st18{fill:#E9B8AF;} .st19{opacity:0.2;fill:#AEC0E4;} .st20{opacity:0.13;fill:#D8BCB8;} </style> <g> <path class="st0" d="M589.1,392c4.8,4.7,4.8,18.3,3.9,24.9c-1.5,10.8-8.7,19.9-17,26.6c-22.5,18.3-52.9,11.5-78.2,4.5 c-10.2-2.8-22.3-5.6-31.3-11.3c-7.9-5-49.4-21.5-53.1-30c-5.9-13.8-0.3-28.9,13.8-33.3c29.8-9.4,87.1,3.7,116.4,11.2 C557.4,388,571.4,389.6,589.1,392z"/> <path class="st1" d="M198,368.3c0.4,1.4,1.1,2.6,1.9,3.5c1.8,2,0.8,6.8,3.2,8.1c21.9,11.5,42.9,24.3,63.8,37.4 c20.3,12.8,45.6,28.8,67.9,38.2c9,3.8,18.8,1.1,25.8,8.4c3.8,3.9,6,8.9,8.1,13.8c3.2,7.9,2.5,15.3,11.7,16.6 c9.2,1.3,16.7,3.7,24.4,9.1c4.7,3.3,7.7,8.5,11.3,13c2.9,0.2,6.9,4.4,9.4,6.2c4.8,3.4,12,4.7,17.2,7.7c5.4,3.1,11.7,5.1,17.7,6.6 c12.1,3,24.7,3,37.1,2c16.9-1.3,35.2-6.3,44.7-21.7c1.3-2,2.2-4.8,4.1-6.3c1.8-1.5,4.6-2.3,6.7-3.6c5-3.1,12.4-5.1,16.3-9.4 c3.1-3.5,7.5-5.8,9.7-10c1.8-3.4,2.6-7.4,2.9-11.2c0.4-4.4,0.8-6.2,5.1-8.2c3.5-1.6,6.8-3.4,10.3-5c6-2.8,12.5-5.9,14.3-13.2 c1.7-7.3,1.1-20.2-2.4-26.7c-2-3.7-5.1-3.7-8.6-3.4c-5.8,0.6-12.9,0.8-18.5,2c-6.8,1.5-13,2.7-20.3,3c-7,0.2-15.3,2.6-22.2,0.9 c-3.7-0.9-7.3-3.4-11.2-4.5c-5-1.4-10.3-1.9-15.4-2.9c-19.3-3.6-76-23.5-94.9-28.6c2.7,0.5,6.2-0.5,9,0.1 c8.5,1.9,55.8,18.3,64.3,20.5c5.9,1.5,11.7,3,17.6,4.2c12.4,2.6,25.4,2.7,38,3.3c11.5,0.5,22.9,1.8,34.4,2.3 c7,0.3,12.3-0.2,18.8-2.3c3.2-1,6.3-2,9.6-2.8c8.5-1.9,16.8-2.9,25-5.9c7-2.6,8.9-7.3,9.2-14.2c1-20.8-22.6-24.9-39-27.2 c-10.7-1.4-21.1-0.7-31.7-3c-4.2-0.9-8.4-2.7-12.7-3.9c-9.6-2.7-19.4-1-28.6-5.8c-11.8-6.2-19.1-6-31.9-9.4 c-14-3.6-32.3-11.6-43.3-21.1c-3.7-3.2-7-4.7-11.6-6.5c-5.5-2.1-9.9-4.7-14.8-7.9c-6.8-4.5-15.5-9.2-19.8-16.5 c-3.9,0.2-22.2-13.4-26-13.1c-4.5,0.4-0.2,9.5-4.3,11.5c-3.7,1.8-8.1,2.8-11.8,4.6c-3.8,1.8-2,1.1-5.2,3.9 c-7.6,6.6-9.4,15.3-15.4,23.1c-5.9,7.7-11.6,7.6-19.6,13.3c-9.1,6.5-17.8,20.3-23.2,6.3c-2.3-6-3.1-4.4,0.4-8.9 c5-6.5,14-15,17.9-22.2c2.9-5.3-5.1-15.3-6.5-21.6c-2.2-10.6-26.7-7.9-33.3-7.3c-15.2,1.4-33.7,6.3-44.3,17.8 c-5,5.4-9.7,11-14.8,16.3c-2.6,2.7-5.4,7-8.4,9.1c-0.8,0.6-0.9,0.9-1.6,0.7c-6.7,3.4-13,6.5-15.7,14.5c-0.9,2.6-0.7,5.7-0.8,8.4 c-0.1,2.7,0.1,5.7-0.3,8.4C197,361.7,197,365.3,198,368.3z"/> <path class="st2" d="M412.4,294.6c-3.1,5.5-6.6,4.7-12.1,6c-5.8,1.4-11.5,6.1-16.2,9.6c-5.4,4-12.2,6-16.5,10.4 c-6.2,6.4-11.1,13.9-16.6,20.9c-6,7.6-14.5,12.4-21,19.4c-5.9,6.3-11.9,13.1-21.1,12.7c-8.1-0.3-13.7,1-2.8-6.8 c7.5-5.3,13.7-8.3,19.2-16.3c5.6-8,10.3-16.7,14.6-25.3c3.9-7.8,10.3-12.9,16.9-18.5c9.3-7.9,21-16.2,33.5-17.1 C396.3,289.2,405.9,288.8,412.4,294.6z"/> <path class="st2" d="M432.6,529.3c-14.6-10.1-18.3-28.7-32.6-39.2c-7.4-5.5-18-5.9-24.7-11.9c-4.9-4.3-6.5-11-10.5-15.9 c-6.1-7.3-14.1-8.7-22.7-11.6c-8.4-2.9-15.4-8.9-23.4-12.9c-5.4-2.7-18.5-10.5-19.1-1c-1.2,19,20.7,31,34.1,40.2 c6.6,4.5,13.5,8.2,18.8,14.2c3.1,3.6,5.6,7.8,9.2,11c10.8,9.5,25.9,14.6,36.9,23.9C407.2,533.5,421.9,536.3,432.6,529.3z"/> <path class="st2" d="M306,294.6c-9.1,5.5-16.8,11.7-24.7,18.8c-11.5,10.4-27,21.8-32.3,36.8c-3.1,8.7-5.1,17.7-8.2,26.4 c-2.6,7.2,0.3,16.4-3,22.4c-6.5-5.6-14-9.9-20.2-15.8c-14.2-13.4-2-29.8,8.7-41.6C249.3,316.3,271.2,292.6,306,294.6z"/> <path class="st3" d="M560.1,479.9c-0.4-7.8,2.9-18.9,0.4-25.8c-18.4,0.7-18.9,16.4-27.6,29.6c-3.8,5.7-7.4,9.5-9.3,16.3 c-2.2,7.5-4.5,15-7.5,21.9c11-0.2,9.7,4.9,7.4,11c7.3-3.3,13.8-8.3,18.3-15.6c1.3-2,2.2-4.8,4.1-6.3c1.8-1.5,4.6-2.3,6.7-3.6 c5-3.1,12.4-5.1,16.3-9.4c3.1-3.5,7.5-5.8,9.7-10c1.8-3.4,2.6-7.4,2.9-11.2c0.1-1.2,0.2-2.2,0.4-3 C576.1,472,565.4,478.6,560.1,479.9z"/> <path class="st4" d="M613.2,196.3c-10.9,4.2-21.2,10.2-32.3,14.5c-9.1,3.6-17.6,8.1-26.8,11.3c-20.9,7.2-41.8,6.9-63.6,5.9 c-12.5-0.6-25-0.1-37.4-1.1c-11.2-0.9-23.4-2.9-34.7-2c-7.9,0.6-13.5,5.9-20.2,9.5c-9.7,5.3-19.4,10.5-29.3,15.4 c-13.3,6.5-27.9,11.4-39.2,21.2c-14.8,12.9-11.9,30.3-19.9,46.6c-5.9,12.1-19.2,23.3-21.1,36.7c6.4,0.4,12.1,5.5,19.2,6.1 c9.2,0.7,17.3-1.2,24.9-6.5c10.3-7.2,17.6-18.8,24.3-29.1c4.1-6.2,6.2-12.4,12.9-15c6.8-2.6,20.7-5.7,22.8-13.9 c5.7-0.6,13.7,4.4,18.7-0.4c5.2,8,9.6,16,17.6,21.9c11.3,8.3,26.7,10.4,40,12.6c-3.7,14.3,36.8,23.7,45.4,25.4 c10.2,2.1,42.9,7.1,50.4,9.2c6.3,1.8,12.7,3.3,19.1,4.6c11.2,2.3,22.3,2.3,33.6,1.7c6.4-0.3,10.7-0.2,16.5-3 c9.9-4.6,17.5-17.3,21.4-27c4.5-11,5.4-25.3,6.7-37c1.5-13,1.1-31.3-3.8-43.8c-7.2-18.1-19.3-37.4-32.7-51.6 C622.3,204.9,616.4,201.1,613.2,196.3z"/> <path class="st5" d="M314.5,324.1c0.9-2.8,0.7-6.1,0.8-9c0.4-7.4,0.6-14.3,1.5-20.7c-1.9,7.6-3.3,15.5-7,23.2 c-1.9,3.9-4.5,7.6-7.3,11.4c-0.1,0.8-0.3,1.5-0.5,2.3c-0.8,3.6-3.2,8.3-2,12.1c4.3-0.9,7.9-7.4,9.9-10.9 C311.5,329.7,313.6,327,314.5,324.1z"/> <path class="st3" d="M619.8,371c-3.6,6.3-6.8,13.7-11.8,19.6c-3.9,4.6-8.2,8.2-11.2,13.4c-2.8,4.8-4.3,10.5-5.5,16.3 c2.8-0.4,5.5-1,8.5-2c3.2-1,6.3-2,9.6-2.8c8.5-1.9,16.8-2.9,25-5.9c7-2.6,8.9-7.3,9.2-14.2C644.4,380.6,632.6,374.2,619.8,371z M600.4,420.3c-2.8,0.3-6,0.5-9.2,0.7c-0.8,3.9-1.6,7.7-2.6,11.4c-2.3,8-2,16.1-3.1,24.2c-0.7,5.1-2.5,10.1-2.7,15.3 c0.7-1.3,1.8-2.3,4.1-3.3c3.5-1.6,6.8-3.4,10.3-5c6-2.8,12.5-5.9,14.3-13.2c1.7-7.3,1.1-20.2-2.4-26.7 C607,420,603.8,420,600.4,420.3z"/> <path class="st6" d="M110.2,65.3c0,0,141.5,179.6,217,208.1c0,0-4.8,5.6-6.5,9.6s-3.5,10.2-3.5,10.2s-38.5,7.1-79,57.1 c0,0,3.5-0.5-1,8.5c0,0-12.5,20.1-12.5,29.8c0,0,48.3,21.6,80,49.7c2.3,2.1-11.1,7.4-12.2,7.9c-7.7,3.1-0.1,5.6-8.7,6.1 c-8.9,0.5-33.1-2.4-41-6.2c-6.8-3.2-13.3-7.1-19-11.9c-5.5-4.6-10.4-10.2-13.9-16.6c-1.7-3.2-3-6.6-3.9-10.1 c-0.5-2.2-2.5-8.7-1.3-10.7c0,0-7,11.5-7,11.5L10.2,261L110.2,65.3z"/> <g> <path class="st5" d="M370,309.7c1-0.4,2.2-0.8,3.4-1.2c-5.6,0.1-11.1-0.5-15.8-3.8c-6.3-4.4-12.9-11.7-17.4-17.8 c0.5,9.4,10.7,18.4,17.5,23.6c1.6,1.2,3.4,3.1,5.3,4.8C364.8,312.9,366.9,310.9,370,309.7z"/> <path class="st5" d="M373.4,308.5c-1.2,0.4-2.4,0.8-3.4,1.2c-3.1,1.2-5.2,3.2-7,5.6"/> <path class="st5" d="M373.4,308.5c-5.6,0.1-11.1-0.5-15.8-3.8c-6.3-4.4-12.9-11.7-17.4-17.8c0.5,9.4,10.7,18.4,17.5,23.6 c1.6,1.2,3.4,3.1,5.3,4.8"/> </g> <path class="st7" d="M237.2,358.8c3.5-7,2.2-8.3,1.4-8.5c-11.2,8-22.5,17-28.9,29c-3,5.6-4.2,11.7-5.3,17.9 c0.2-0.3,0.3-0.4,0.3-0.4c-1.2,2,0.8,8.5,1.3,10.7c0.9,3.5,2.2,6.9,3.9,10.1c3.4,6.4,8.3,11.9,13.9,16.6c5.8,4.8,12.2,8.7,19,11.9 c7.9,3.7,32.1,6.7,41,6.2c8.6-0.5,1-3,8.7-6.1c0.3-0.1,1.8-0.7,3.7-1.5c0.6-4,0.8-8.2,0.4-12.8c0-0.1,0-0.3,0-0.4 c-31.2-24.6-71.8-42.8-71.8-42.8C224.7,378.9,237.2,358.8,237.2,358.8z"/> <path class="st8" d="M224.8,387.4c0-0.1,0-0.2,0-0.3c0-0.4,0.1-0.9,0.2-1.3c0,0,0,0,0,0c0.1-0.5,0.2-1,0.3-1.5c0-0.1,0-0.2,0.1-0.3 c0.1-0.5,0.3-1,0.4-1.5c0,0,0,0,0,0c-0.4-0.4-11.8,16.7-8.6,26.9c5.5,17.4,24.7,16,39.1,20.8c6,2,25.7,13.2,39.5,14.6 c0.3-0.1,0.5-0.2,0.8-0.3c0,0,0,0,0,0c0.5-0.2,1.1-0.5,1.6-0.8c0,0,0.1,0,0.1-0.1c0.5-0.3,1.1-0.5,1.6-0.8c0.1,0,0.1-0.1,0.2-0.1 c0.2-0.1,0.4-0.2,0.6-0.3c0,0,0.1-0.1,0.1-0.1c0.2-0.1,0.5-0.3,0.7-0.4c0,0,0.1-0.1,0.1-0.1c0.2-0.1,0.4-0.2,0.5-0.3 c0.1,0,0.1-0.1,0.2-0.1c0.2-0.1,0.4-0.3,0.6-0.4c0,0,0,0,0.1,0c0.2-0.1,0.3-0.2,0.5-0.3c0,0,0.1-0.1,0.1-0.1 c0.1-0.1,0.3-0.2,0.4-0.3c0,0,0,0,0.1-0.1c0.1-0.1,0.2-0.2,0.3-0.4c0,0,0-0.1,0.1-0.1c0.1-0.1,0.1-0.2,0.2-0.3c0,0,0-0.1,0-0.1 c0.1-0.1,0.1-0.2,0.1-0.3c0,0,0,0,0-0.1c0-0.1,0-0.2,0-0.2c0,0,0-0.1,0-0.1c0-0.1-0.1-0.2-0.2-0.3c-31.7-28.1-80-49.7-80-49.7 C224.7,388.2,224.7,387.8,224.8,387.4z"/> <g> <path class="st5" d="M370,309.7c1-0.4,2.2-0.8,3.4-1.2c-5.6,0.1-11.1-0.5-15.8-3.8c-6.3-4.4-12.9-11.7-17.4-17.8 c0.5,9.4,10.7,18.4,17.5,23.6c1.6,1.2,3.4,3.1,5.3,4.8C364.8,312.9,366.9,310.9,370,309.7z"/> <path class="st5" d="M373.4,308.5c-1.2,0.4-2.4,0.8-3.4,1.2c-3.1,1.2-5.2,3.2-7,5.6"/> <path class="st5" d="M373.4,308.5c-5.6,0.1-11.1-0.5-15.8-3.8c-6.3-4.4-12.9-11.7-17.4-17.8c0.5,9.4,10.7,18.4,17.5,23.6 c1.6,1.2,3.4,3.1,5.3,4.8"/> </g> <path class="st5" d="M598,205.3c-1.1,8.7-1.2,17-5,25.3c-2.9,6.3-7.1,10.4-8.4,17.5c-4.2,22.3,5.8,45,16.2,64.2 c6.7,12.4,10.3,26.3,18.2,38.1c16.4,24.7,60.1-10.4,67.2-27.3c5.4-12.9,6.6-32.5,5.9-46.5c-0.7-14.2-9.8-27.4-19.3-37.5 c-9-9.7-20.8-16.3-32.1-23.1C630,209.4,615.6,199.5,598,205.3z"/> <path class="st9" d="M792.2,72.8l-169,105.5c0,0-14.5,6-21,20.5c0,0-13,18-13,41c0,0,0.5,57,60.5,122c0,0,16.5,17.5,28,17.5 c0,0,2.5,0,18,0c0,0-13.5,13.5,8,8l128-41.5v-299L792.2,72.8z"/> <path class="st5" d="M414.4,245.3c-7.8,7.8-7.9,34.9-7.7,41.3c-2.2-3.7-5.8-6.3-7.8-10.1c1.1,6.5,5.7,10.9,7.4,17.1 c0.4,1.4,0.7,2.6,1.1,3.8c0.7-0.1,1.4-0.3,2-0.6c-0.7-2.8-1.1-5.8-1.2-8.8C407.9,281.4,413.8,251,414.4,245.3z"/> <path class="st5" d="M381.7,266.9c-2.4,7.5,2.1,19.5,5.9,25.9c1.3,2.2,3,3.4,3.6,6c0,0.1,0,0.1,0,0.2c0.7-0.9,1.2-2,1.5-3.1 c1.9-0.2,4.1,0.2,6.3,0.7C388.6,291.7,385,276.3,381.7,266.9z"/> <g> <path class="st5" d="M536,359.1c-0.3-3.1-3.3-6-5.9-8.4c-5.5-5.2-10.3-8.1-12.4-15.7c-1-3.7-0.6-10-3.5-13 c-5.5-5.8-20.1-2.6-27.2-2.6c-11.5,0-22.8-0.4-34-2.8c-8.4-1.8-22.2-3.1-32.5-7.6c2.4,3.1,5.2,6,8.6,8.5c11.3,8.3,59,34,85.4,38 C518.9,356,527.2,357.6,536,359.1z"/> <path class="st5" d="M408,297.3C408,297.3,408,297.3,408,297.3C408,297.3,408,297.3,408,297.3C408,297.3,408,297.3,408,297.3z"/> </g> <path class="st10" d="M610.3,427.6"/> <path class="st11" d="M640.9,383.1c-5.9-3.6-14.6,0.8-18.5,5.6c-2.5,3-3.8,6.5-4.3,10.3c-0.4,3.1-1.8,7.8-0.2,10.7 c2.5,4.4,15.6,2,19.6,1.1c6.5-1.4,9.6-6.3,9.1-12.7c-0.3-4.2-0.9-9.2-3.4-12.7C642.5,384.3,641.7,383.6,640.9,383.1z"/> <path class="st2" d="M513,366.6c-7.4,5.9-12.6,12.5-12,22.5c0.3,6.1,1.2,20.5,9,22.1c1.1-6.7-4.2-14.8-4.9-21.6 c-0.5-4.6-0.8-9.3,1.1-13.6C507.5,372.9,510,370.9,513,366.6z"/> <path class="st2" d="M414,329.6c-6.9,5.3-12.7,15.6-15.3,23.8c-2.6,8.1-4.8,20.4-0.5,28.1c3.9-4.2,3-9.3,3.2-14.6 c0.2-5.2,1.6-10.4,3.7-15.1C406.8,347.8,419.3,333.2,414,329.6z"/> <path class="st2" d="M378,445c-1,10.5,9.2,15.2,16.7,19.8c8,5,18.8,7.7,28,9.6c-3.8,3.1-11.3,1.5-15.8,1c-9.2-1.1-16.7-6.3-24-11.9 c-4.4-3.4-10.2-7.9-11.5-13.5C370.6,447,371.2,443.4,378,445z"/> <path class="st2" d="M430,456.3c4.1-3,14.9-0.3,19.8,0.4c6.4,1,11.8,4.4,17.7,6.9c11.5,5,22.6,10.7,34.2,15.7 c9.6,4.1,20.3,4.5,30.5,5c8.9,0.4,16.8-1,25.2-3.4c7.9-2.3,18.3-8.1,26.1-10c-7.1,7.1-13.4,11.7-22.2,13.3c-8.6,1.5-21,2-29.2,4.2 c-10.8,2.9-20.5-0.9-30.6-4.8c-11.1-4.3-22.3-8.4-33.2-12.8c-6.1-2.4-11.9-5.2-17.8-7.9C445.2,460.3,439.5,459,430,456.3z"/> <path class="st2" d="M436.7,495.6c-1.4,0-6.9-1.5-6.3,1.7c0.5,2.4,9.7,3,12.1,3.8c9.5,3.1,19.6,7.2,28.5,11.9 c10.4,5.4,20,10.4,31.9,12.6c5.1,1,10.1,1.8,14.8-0.2c3.4-1.4,6.2-2.2,9.9-2.8c2.4-0.4,14.9-5.4,18.5-11.6 c1.9-3.2-19.6,7.3-22.8,8.3c-14.9,4.5-29.5-0.1-43.9-5c-6.8-2.4-13.4-5.1-19.9-8.3C452.8,502.6,446.3,497.5,436.7,495.6z"/> <path class="st12" d="M470.8,538.9c-2.6,2.2-6.2,4.5-9.4,5.7c-3.7,1.3-9.3,0-13.3,0.1c-10.7,0.1-22.6,4.4-33.3,3.8 c-5.5-0.3-7.3-1.5-11.4-5.3c-3.6-3.3-6.6-7.2-10-10.9c-3.4-3.8-7-7.8-12.2-8.6c-7.3-1-18.1-0.9-25.5-2.7 c-7.8-2-13.5-12.5-13.2-21.3c-7.3-3.1-14.4,3.5-23.4-5.5c-6.3-6.3-8.6-14.8-12.4-22.5c-1.8-3.6-0.3-6.7-4.5-7.5 c-5.4-1.1-11,1.5-16.2-1.2c-11-5.6-1.3-23.3,5.2-28.3c5.2-4,12.6-0.4,16,5.9c6,0,9.8-0.1,15.3,2.8c5.5,2.9,9.8,6.5,12.3,12.2 c12.9-1.6,24,2.5,31.7,13.1c4.6,6.2,2.3,16.9,8.2,21.6c3.9,3.2,5.7,1.5,10.2,1c6.6-0.8,12.4,1.2,17.1,5.6c3.3,3.2,7.7,5.7,10.6,9.4 c2.4,3.1,4.5,6.3,7.2,9.1c5.7,5.9,14.7,9.5,22.2,13.2C451.9,533.6,462.4,534.4,470.8,538.9z"/> <path class="st2" d="M538.7,484.6c3.7-3.6,4.5-16.6,2.5-21.5c-1.2-2.9-4.4-4.6-7.7-4.2c-2.2,0.3-3.4,2.7-5.1,3 c-1.8,0.3-4.6-3.6-6.6-3.3c-1.3,0.2-3,2.5-3.7,3.5c-1.7,2.6-1.8,5.6-1.8,8.6c-0.1,6.2,0.8,11.1,6.8,14 C526.6,486.4,532.8,486.6,538.7,484.6z"/> <path class="st2" d="M521,521.3c-7.1-4.3-1.6-11.5-1.1-17.6c-3.6,2.1-5.2,5-7,8.6c-0.7,1.5-1.6,4.5-3.4,4.9 c-6.5,1.6-3.5-11.2-2.6-13.4c-2.4,2.4-5.2,6-5.2,9.6c-1-1.9-1.6-4.1-2.7-5.8c-2,2.5-4.2,1.4-4.7,5.5c-0.4,3.9,1.6,5,4.7,6.8 c3.3,1.9,6.5,2.2,10.3,2.2c1.6,0,3.3,0.2,4.9,0C515.5,522.2,517.5,522,521,521.3z"/> <path class="st2" d="M471,538.9c3.8-2.1,12.2-4.5,15-7.8c5.2,5.1,20.2,4.9,26.9,5.4c-5.5,1.8-13.8,2.3-18.6,2.8 c-3.6,0.4-7.3,0.7-11,0.7c-1.7,0-3.5-0.2-5.2-0.3C477.6,539.6,471.7,540.2,471,538.9z"/> <path class="st13" d="M465.8,537.5c-3.6,8.4-7.5,6.8-16.2,6.4c-8.2-0.4-16.7,1-24.9,1.4c-7,0.3-12.9,1.2-18.9-3.7 c-7.9-6.4-12.9-15.7-19.4-23.3c-4.8-5.6-11.6-5.1-15.8-10.7c-3.2-4.3-1.9-6.9,1.9-11.1c12.3-13.3,30.6,0.6,39.8,10.7 c9.4,10.3,11,21.1,12.3,34.6c2.2-3,1.9-7.1,1.2-10.7c-0.6-3.5-4.1-8.9-2.6-12.4c6.4,4.3,10.9,11.4,18.2,14.5 C448.6,536.3,458.3,533.4,465.8,537.5z"/> <path class="st13" d="M364.8,506.9c-1.1-3.9-0.6-7.3,2.6-9.6c3.4-2.4,5.5-2.5,4-6.9c-1.2-3.4-1.5-7.1-3-10.4 c-2.6-5.8-4.8-11.6-9.3-16.2c-2.3-2.4-6.1-4.3-8.8-5.6c-6.9-3.3-16.2-4.7-18.7,4.7c-1.4,5.4,3.1,7.4,7.1,10 c4.8,3.1,4.7,7.7,5.5,13.1c1.1,8.2-0.8,18.6,6.1,24.7c1.5,1.4,3.6,2.2,5.5,3.1c2.9,1.4,5.9,3.2,9.1,3.6c1.7,0.2,3.3,0.3,5,0.2 c0.6,0,4.7-0.6,4.9-0.2C371.9,513.2,366.2,511.9,364.8,506.9z"/> <path class="st13" d="M334.2,454.8c-1.6-10.4-15.3-16-24.6-14.4c-4,0.7-6.2,3.1-8.2,6.5c-2.7,4.4,1.1,7,4.4,9.9 c3.4,3,4.9,5.4,5.5,9.9c0.6,4.4,1.3,8.7,1.1,13.1c-0.2,4.8,3.9,4.9,7.7,4.8c6.3-0.2,5.6-3.5,5.6-8.5c0-4.2-1.4-24.2,7.6-19.2 C333.3,456.5,333.5,456.2,334.2,454.8z"/> <path class="st13" d="M302.5,440.1c-5-2.6-12.1,1.2-15.4,4.8c-4.4,4.8-5,10-1,15.5c2.2,2.9,10.8,5.9,9.7-0.2 c-0.5-2.6-2-4.7-2.2-7.5c-0.1-1.6-0.2-3.6,0.3-5.2C295.3,443.7,299.2,443.5,302.5,440.1z"/> <path class="st14" d="M336.9,460.2c0.1-1.1,0.4-2.5-0.6-3.4c-1.5-1.4-4.1-1.6-5.2-0.1c-1.9,2.5-1.6,6.3-1.5,9.2 c0.3,5.2,1,10.7,2.5,15.9c1.3,4.5,3.4,11.3,7.2,14.3c2.4,1.9,5.2,0.1,6.6-2.1c1.9-3.1,1.6-7.3,1.4-10.8c-0.2-3.4-1.9-6.5-4.3-8.9 c-2.5-2.6-8-4.3-9.2-7.8C332.9,463.9,335,462.3,336.9,460.2z"/> <path class="st15" d="M831.7,46.8l-39.5,26l-169,105.5c0,0-14.5,6-21,20.5c0,0-4.7,6.6-8.5,16.8c3.1,0.5,5.1,1,8.7,0.2 c3.1-0.7,6.4-3,9.2-4.4c8-3.8,15.8-7.9,23.6-12.1c17.3-9.2,33.3-19.8,51.1-28c14.2-6.5,30.9-5.5,42.1-16.7 c12.1-12.2,26.4-24,41.6-32.5c11.9-6.6,29.1-16.2,39.6-24.1c9.8-7.4,10.1-12.7,21.9-17.5V46.8z"/> <path class="st14" d="M302.7,446c1.9-3.2-1.2-5.3-4.3-3.8c-2.1,1-3.8,4.8-4,7c-0.5,4.5,2.4,7.6,5.1,10.7c2.2,2.6,3.4,5.9,4.3,9.3 c0.7,2.8,1.7,6.8,3.6,9.1c1.5,1.7,4.5,1.2,5.6-0.9c1.1-1.9,0.2-6.3-0.2-8.5c-0.5-2.4-1.4-5.7-3.2-7.4c-3.1-3-7.2-5.5-9.4-9.3 C298.4,449.3,299.6,447.7,302.7,446z"/> <path class="st14" d="M371.7,497.5c1.6-3.2-4.5-2.9-5.5,0c-0.8,2.2-0.8,6,0.5,7.9c1.9,2.8,4.8,4.4,7.3,6.4c2.1,1.7,4,3.5,6.1,5.3 c1.9,1.7,4,3,5.3,5.2c1.5,2.3,3.4,4.4,4.9,6.7c1.4-6-1.9-11.1-6-15.3c-1.9-2-3.5-5-6.1-6.2c-2-0.9-6-0.7-7.4-2.7 C369.9,503.3,370.4,499.9,371.7,497.5z"/> <path class="st16" d="M831.7,345.8V324c-21.9,10.8-59.1,24.9-69.5,27.3c-5.5,1.3-10.3,3.8-15.5,5.8c-6.8,2.6-13.1,5.5-19.8,8.6 c-4.6,2.2-9.7,3.5-14.1,5.9c-5.4,3-9.6,4.9-15.6,6.8c-0.8,0.3-1.7,0.6-2.6,0.9h1c0,0-13.5,13.5,8,8L831.7,345.8z"/> <path class="st16" d="M735.5,148.5c5.1-6.6,12.4-7.5,18.9-11.9c-6.2,2.1-12.4,2.2-18.3,5.4c-5.4,2.9-6.5,7.3-10.6,11.1 c-6.1,5.7-13.5,5.6-21.2,7c-10.4,1.9-18.9,9.4-28.3,14c-9.6,4.7-20.6,13.4-31.8,13.4c-0.5-5.5,1.2-10.9,0.4-16.2 c-0.2-1.4-0.8-3.5-1.6-5.4l-6.5,4c-0.8,7.2,0.2,15.5-3,22.3c-4.6,9.7-13.2,12-22.3,16.2c-6,2.7-11.7,6.7-13.1,13.5 c10.3-2.4,14.7-11.3,24.6-15.6c12-5.2,22.7-11.6,34.1-17.7c12-6.4,22-14.7,35.3-19.2c9.1-3.1,19.8-3,28.5-6.8 C727.2,159.9,731.3,154,735.5,148.5z"/> <path class="st16" d="M784.1,103.1c-0.4-7.1,0.7-14.2,1-21.3c-7.8,5.6-14.5,12.1-14.9,4.7l-20,12.5c6,6.8,13.4,11.9,19.3,18.8 c13.9,16.3,21.6,36.1,30.6,55.1c-2.3-8-4.3-16-5.8-24.2c-1.4-7.4-4.3-14.8-5.3-22.2c-0.8-5.9,1-11.2,4.5-15.7 c3.4-4.3,15-10,16-14.7C804.2,95.3,788.3,99.8,784.1,103.1z"/> <path class="st17" d="M721.2,368c-2.9,1.1-5.7,2.1-8.4,3.6c-5.2,2.9-9.3,4.7-14.8,6.5c1.2,0.8,2.8,1.5,4.7,1.8 C711.5,381.5,719.8,376.3,721.2,368z"/> <path class="st14" d="M309.9,317.5c-5.8,12-18.9,23.1-21.1,36.3c5.4,0.3,12.6-8,14.5-13c1.8-4.8,2.8-9.6,4.5-14.6 c0.9-2.8,2.4-6.7,2.7-10.1C310.3,316.6,310.1,317.1,309.9,317.5z"/> <path class="st5" d="M546.4,360.9c-2.7-0.6-5.7-1.2-8.4-1.4C540.8,359.9,543.7,360.4,546.4,360.9z M583,368 c-2.8-0.2-5.5-0.6-8.1-0.9c3,0.7,6,1.4,9,2c11.1,2.2,22,2.3,33.2,1.7C609.6,365.1,591.5,368.8,583,368z"/> <path class="st18" d="M550.7,277.3c-1.9,17.7,18.9,29.1,22,45.5c3.7,20,12.7,29.4,23.9,45.3c-17.4,4.2-31.1-25.5-32.9-37.8 C560.7,310.9,545.8,298.6,550.7,277.3z"/> <path class="st5" d="M498.1,237.3c-28.9,7.5-19.9,40-27.9,61.1c-9.9-4.3-7.4-24.4-4.4-33C469.9,253.9,479.8,242,498.1,237.3z"/> <path class="st8" d="M197.7,408.3c0,0,0-0.1,0.1-0.2C197.8,408.1,197.7,408.2,197.7,408.3L197.7,408.3z M206.9,395 c1.6-9.7,7.1-18.4,12.1-26.6c-6.9,6.8-12.1,15.5-15.7,24.6c-1.3,3.4-1.7,7.1-2.7,10.4c1.9-3.1,4-6.6,4-6.6c-1.2,2,0.8,8.5,1.3,10.7 c0.9,3.5,2.2,6.8,3.9,10c0.6-0.6,1.2-1.2,1.9-1.9C210.6,408.4,205.7,402.4,206.9,395z"/> <path class="st19" d="M316.8,268.7c-58.6-29.8-146.9-131.1-186.4-178.6c-16-3.4-27.9,3.5-38.5,18.2c-24.3,33.5-8.6,68.8,22.9,90.5 c11.1,7.7,19.1,19.1,28.2,28.9c2.2,2.4,4.6,4.9,7.8,5.7c6.6,1.8,12.7-4.1,16.3-9.9c3.6-5.8,7.2-12.6,13.8-14.4 c3.7-1,7.6-0.2,11.3,0.9c24.3,6.9,46.6,19.4,67.4,33.5c10.5,7.1,20.6,14.8,30.5,22.7c2.7,2.1,35.6,28.6,32.6,13 C322,276.2,319.8,272.5,316.8,268.7z"/> <path class="st8" d="M153.7,259.3c-9.8,14.3-30.9,29.9-29.9,48.9C151.6,305.3,138.5,276,153.7,259.3z"/> <path class="st8" d="M126.8,352.6l14,11c6.3-13,14.5-25.6,20.5-38.3c7.7-16.6,9.7-34,17.4-50.7c-12.3,15.9-26.1,32.2-37.4,48.9 C136.1,330.8,129.7,341.8,126.8,352.6z"/> <path class="st8" d="M197.7,408.3C197.7,408.3,197.7,408.3,197.7,408.3c-1.7-5.5-8.4-8.6-12.6-12.6c-9-8.5-17.1-18.2-25.6-26.9 c-23-23.4-12.2-52.1-21.4-80.2c-7.5,16.5-24.6,8.1-31-4.9c-2.9-5.8-2.8-12-5.1-18c-2.6-6.7-8.1-12.7-11.5-19 c-5.5-10.2-4.5-23-9.9-32.5c-11.9-20.9-25.9-1.8-32.5,10.8c-9.7,18.4-37.9,23.3-18,44.2c-0.7,3.4-1.2,5.1-1.6,6.1L197.7,408.3z"/> <path class="st20" d="M332.6,388.7c4.7,5.9,10.4,10.9,16.9,14.8c4.6,2.7,9.7,5.1,12.6,9.5c2,3.1,2.7,6.9,3.6,10.5 c4.7,18.1,18,33.7,35,41.4c6.3,2.8,12.9,4.8,19,8.2c5.5,3,3.1,7.4-2.7,6.8c-10.4-1.1-21.7-4-30.7-10.1c-9.7-6.7-11.8-18.3-25-17 c-6.5,0.6-10.3-1.5-15.4-5.2c-11.6-8.4-17.6-18.8-26.7-29.2c-3.3-3.7-6.5-8.2-8.9-12.6c1,1.8,10.2,5.2,12.5,7.3 c3.6,3.3,6.3,7.2,9.8,10.6c8.8,8.4,18.6,15.9,29.1,22.2c10.5,6.4,1.5-13-0.1-16c-4.2-7.7-9.8-14.7-16.6-20.3 c-3.4-2.8-7.1-5.4-9.8-8.8c-2.7-3.5-4.4-8.2-2.8-12.4C332.5,388.6,332.5,388.6,332.6,388.7z"/> <path class="st2" d="M387.7,400.3c0,4.6,1,13.1-1.5,16.6c-3.1,4.4-7.4,3.7-4.1,10.3c3.1,6.3,9.6,12.7,15.9,15.6 c5.7,2.6,18.2,8.8,24.1,5.9c-1.3-4.4-7.4-5.9-11.2-7.4c6.5,0.1,13.3,2.5,19.3,4.8c-1.7-6.1-8.6-8.7-13.9-10.7 c-4.5-1.7-9.1-3.4-13.7-4.7c-2.4-0.6-6.9-0.3-8.9-2.2c-3.1-3-0.9-8.3-1.1-12.1C392.5,412.2,391.1,408.1,387.7,400.3z"/> <path class="st2" d="M503.2,364.3c-18.6,5-15.6,29.1-10,41.8C489.5,394,486.3,372.9,503.2,364.3z"/> <path class="st2" d="M521.7,455.3c-7.7,5.9-8.9,20.1-4.1,28C515.7,474.9,518.3,465.4,521.7,455.3z"/> </g> </svg>