<?xml version="1.0" encoding="UTF-8"?>
<svg viewBox="0 0 2948.8589 2786.2422" xmlns="http://www.w3.org/2000/svg" xmlns:xlink="http://www.w3.org/1999/xlink">
 <defs>
  <linearGradient id="a">
   <stop stop-color="#501400" offset="0"/>
   <stop stop-color="#d09c10" offset=".31002"/>
   <stop stop-color="#ecdc5c" offset=".55809"/>
   <stop stop-color="#fcfc80" offset="1"/>
  </linearGradient>
  <linearGradient id="d" x1="1180.3" x2="2165.4" y1="1167" y2="-354.66" gradientUnits="userSpaceOnUse" xlink:href="#a"/>
  <linearGradient id="c" x1="1073.8" x2="2058.9" y1="1189.1" y2="-332.55" gradientUnits="userSpaceOnUse" xlink:href="#a"/>
  <linearGradient id="b" x1="1239.9" x2="2225" y1="1253.4" y2="-268.28" gradientUnits="userSpaceOnUse" xlink:href="#a"/>
  <linearGradient id="e" x1="1687.4" x2="1281.4" y1="438.64" y2="-64.051" gradientUnits="userSpaceOnUse" xlink:href="#a"/>
 </defs>
 <g transform="translate(394.93 682.22)">
  <path d="m1188.7 276.83c-18.373 271.7 100.52 260.37 246.16 217.64 225.72-66.225 596.23 118.27 763.83 253.85 318.39 257.56 279.16 333.39 295.03 467.84 5.2762 44.692-22.09 88.639-116.87 157.16-84.958 61.424-85.579 144.29-86.321 190.59-0.688 42.9-18.896 87.438-117.04 176.18-48.504 43.861-21.868 181.21-81.036 165.78-59.734-15.574 6.9673-128.4 57.224-183.98 44.268-48.951 106.86-78.757 98.061-186.29-5.6266-68.792-6.7838-125.55 66.016-191.59 53.016-48.092 91.712-127.22 76.431-202.85-25.378-125.6-65.092-96.246-45.634-18.354 27.761 111.13-38.308 153.39-104.15 195.63-54.437 34.922-77.001 96.984-78.21 160.98-0.3705 19.618-16.962 86.118-124.03 174.24-51.052 42.018-35.737 153.76-104.13 166.2-63.77 11.604 30.807-119.49 84.889-173.99 46.084-46.445 85.603-100.02 89.273-176.53 3.1067-64.774-6.5134-124.12 80.824-181.45 62.582-41.073 94.942-103.16 91.72-176.93-5.6403-129.12-69.369-148.62-70.494-30.371-0.6684 70.22-23.408 131.33-91.982 161.31-81.247 35.527-100.69 99.608-105.01 170.26-4.3704 71.526-45.669 124.15-105.01 170.26-55.464 43.096-33.443 151.65-95.042 166.24-54.08 12.81-5.4268-109.28 72.671-174.47 53.822-44.923 75.162-107.73 82.64-178.49 6.1863-58.542-4.9758-122.59 82.64-178.49 51.602-32.922 82.213-87.251 78.256-175.95-8.327-186.64-77.196-122.13-74.433-29.366 2.6226 88.049-39.206 133.97-93.597 173.52-37.965 27.609-80.864 62.481-96.92 174.86-7.7721 54.399-17.252 103.74-96.919 174.86-50.9 45.437-29.09 175.6-96.92 174.86-63.966-0.696 21.199-126.6 76.621-183.16 66.514-67.881 77.815-125.67 76.621-183.16-1.5726-75.733 25.101-134.73 76.621-183.16 66.159-62.195 77.162-127.86 71.403-194.19-9.1597-105.5-57.54-149.72-67.748-25.603-9.1072 110.74-40.088 179.31-115.21 214.88-49.564 23.469-90.45 53.168-123.24 194.94-16.539 71.502-45.604 136.08-123.24 194.94-55.336 41.952-45.226 211.75-109.45 179.34-65.484-33.046 32.751-146.24 93.149-191.09 70.2-52.121 102.27-125.48 114.01-202.58 12.659-83.168 36.952-152.42 107.08-204.43 64.486-47.822 91.022-121.12 99.743-213.06 5.1431-54.22-50.556-170.56-65.5-18.01-9.0764 92.652-47.076 159.53-125.78 199.55-81.848 41.62-121.64 130.39-131.69 191.77-9.402 57.412 0.1195 74.028-131.52 194.47-56.336 51.546-49.12 189.78-123.81 190.59-71.702 0.7782 47.247-132.47 107.85-197.62 62.876-67.592 116.32-139.09 111.17-198.96-7.3973-86.104 51.8-161 110.98-202.15 36.022-25.048 103.46-122.1 105.87-211.32 4.0067-147.93-74.186-135.75-86.878-32.652-13.323 108.22-51.876 140.08-100.34 184.8-96.332 88.893-103.53 130.48-114.03 182.93-15.523 77.517-55.804 137.5-114.03 182.93-58.944 45.988-41.04 181.17-112.1 192.32-66.778 10.477 20.476-137.17 91.368-202.16 50.003-45.838 92.484-124.49 89.494-188.47-4.7841-102.37 17.511-140.28 88.829-199.29 52.894-43.763 120.52-125.15 91.096-184.49-43.012-86.752-205.4-126.71-414.46 39.504-62.233 49.479-225.2 111.24-178.51 591.68 7.2711 74.817-123.22 84.523-143.09 165.4-13.135 53.468-39.408 97.443-108.97 120.25-68.904 22.595-114.78 78.548-126.03 142.82-15.101 86.328-110.01 204.81-126.03 142.82-16.574-64.137 96.029-85.905 110.78-156.97 11.832-57.007 41.791-113.91 116.03-146.53 59.536-26.161 81.112-70.79 99.162-120.9 20.001-55.524 108.73-84.33 108.66-141.47-0.39117-290.14-18.33-306.35-45.747-47.972-6.0474 56.992-107.67 72.366-123.21 131-17.174 64.832-31.758 118.96-123.21 131-65.345 8.6006-107.77 70.154-123.21 131-15.912 62.726-84.703 183.23-123.21 131-38.956-52.848 98.644-93.511 110.68-141.77 14.289-57.268 25.993-115.53 110.68-141.77 66.459-20.586 104.91-59.565 110.68-141.77 4.8601-69.183 102.76-92.456 110.68-141.77 42.553-264.67 10.289-231.31-44.729-49.122-21.571 71.43-110.56 60.22-123.16 128.95-14.337 78.217-60.51 110.37-123.16 128.95-63.146 18.726-105.53 69.551-123.16 128.95-18.691 62.985-85.599 176.79-131.97 135.64-45.763-40.616 109.91-81.037 119.11-146.03 11.257-79.468 58.688-112.71 110.3-139.34 57.797-29.819 90.244-75.734 110.3-139.34 18.959-60.126 87.249-76.987 110.3-139.34 72.506-196.13 66.18-226.47-50.783-42.276-33.764 53.171-65.978 106.36-124.27 128.22-67.32 25.236-100.74 76.856-124.27 128.22-26.409 57.636-65.98 105.21-117.39 140.09-66.536 45.141-85.165 151.64-131.15 116.34-45.246-34.732 67.095-90.514 94.846-142.8 26.078-49.13 41.281-86.365 129.11-135.68 54.632-30.677 97.465-80.183 111.98-139.24 16.704-67.983 72.569-94.235 111.98-139.24 130.25-148.75 117.27-198.19-49.893-43.282-46.391 42.989-57.096 102.11-124.51 126.49-64.385 23.291-110.18 64.708-124.51 126.49-14.369 61.952-68.521 97.136-124.51 126.49-52.398 27.474-80.46 165.99-124.51 126.49-44.01-39.46 61.685-106.55 112.11-137.39 59.486-36.389 98.08-82.169 112.11-137.39 18.363-72.29 55.193-109.62 112.11-137.39 60.22-29.391 67.75-109.75 112.11-137.39 177.63-110.71 158.28-143.88-48.464-44.899-61.765 29.572-44.386 113.31-127.47 127.85-84.659 14.813-111.79 69.851-127.47 127.85-17.98 66.5-67.203 105.18-127.47 127.85-60.786 22.864-74.917 157.05-127.47 127.85-51.956-28.865 49.985-109.34 114.48-138.08 59.948-26.72 105.2-74.058 114.48-138.08 12.048-83.082 44.05-127.1 114.48-138.08 93.709-14.61 56.874-120.31 114.48-138.08 231.47-71.43 232.52-87.173-51.088-41.93-51.287 8.1816-39.434 103.95-124.84 113.05-61.021 6.5061-82.674 9.392-111.84 124.55-22.153 87.476-76.663 124.8-136.46 149.13-59.541 24.222-105.74 168.59-135.47 115.25-34.442-61.795 52.047-117.08 125.79-143.69 68.244-24.629 120.18-93.939 106.28-160.94-26.296-126.74 76.461-112.91 145.29-126.45 75.158-14.783 60.027-143.08 125.79-143.69 321.18-2.9964 456.64-27.681 567.37-252.12 68.426-138.7 117.99-342.13-0.8511-408.82-63.046-35.382-141.79 25.736-185.37 112.61-40.442 80.616-109.91 100.61-185.37 112.61-82.454 13.111-146.17 54.304-185.37 112.61-54.066 80.426-184.99 183.34-185.37 112.61-0.39056-73.628 131.7-71.367 171.55-131.49 39.965-60.283 91.322-111.96 171.55-131.49 75.202-18.302 132.33-62.509 171.55-131.49 36.762-64.645 90.534-111.46 171.55-131.49 70.723-17.485 135.08-117.61-55.745-83.609-69.298 12.349-132.5 54.013-184.66 132.3-51.838 77.805-107.91 125.33-184.66 132.3-80.861 7.3443-135.76 72.375-184.66 132.3-54.572 66.875-177.89 206.18-184.66 132.3-7.2367-78.893 132.8-86.339 175.48-149.95 42.334-63.095 80.215-129.92 175.48-149.95 82.643-17.374 143.41-72.701 175.48-149.95 40.145-96.687 117.24-140.03 175.48-149.95 139.77-23.808 64.943-88.426-42.158-60.155-69.012 18.217-136.03 45.761-183.49 126.66-51.214 87.297-116.77 108.77-183.49 126.66-75.102 20.135-143.8 62.888-183.49 126.66-50.043 80.398-161.48 196.94-183.49 126.66-22.602-72.158 138.4-72.881 174.08-139.74 50.815-95.209 111.79-118.04 174.08-139.74 74.083-25.811 156.76-80.947 174.08-139.74 32.908-111.71 113.15-127.29 174.08-139.74 154.02-31.489 106.94-74.398-28.414-67.073-74.233 4.0172-126.6 41.405-169.16 96.428-43.138 55.771-85.443 91.564-169.16 96.428-73.169 4.2509-132.5 47.116-169.16 96.428-41.646 56.028-155.38 163.08-169.16 96.428-14.337-69.379 125.7-66.505 160.32-116.63 35.753-51.757 78.714-99.068 160.32-116.63 65.109-14.012 122.28-49.096 160.32-116.63 56.123-99.629 95.998-107.93 160.32-116.63 124.03-16.769 116-88.256-44.546-66.081-58.912 8.1374-120.82 15.706-163.86 98.823-41.647 80.433-100.93 87.694-163.86 98.823-65.685 11.616-128.32 43.995-164.95 100.53-53.672 82.854-178.2 160.35-164.95 100.53 15.45-69.724 122.88-61.664 154.09-119.28 35.91-66.306 89.385-104 154.09-119.28 67.025-15.829 128.89-37.976 154.09-119.28 29.665-95.733 93.293-110.9 154.09-119.28 136.17-18.779 51.673-83.142-48.331-61.8-67.79 14.468-125.51 36.479-157.15 104.23-37.436 80.181-91.267 99.096-157.15 104.23-74.697 5.8204-127.45 52.925-170.79 109.24-55.215 71.742-170.29 171.08-170.79 109.24-0.52538-65.063 119.14-62.293 161.94-134.88 57.928-98.252 105.87-120.75 161.94-134.88 65.8-16.586 121.12-46.921 146.69-112.82 30.066-77.49 84.445-117.78 146.69-112.82 131.76 10.497 123.34-45.538-26.678-38.842-76.553 3.4169-127.09 41.276-164.58 93.976-54.46 76.566-105.54 94.411-164.58 93.976-91.935-0.67614-144.5 43.281-180.73 100.32-52.696 82.949-192.66 167.56-180.73 100.32 12.661-71.369 135.11-66.679 167.13-121.1 34.24-58.183 71.387-109.45 167.13-121.1 68.726-8.3642 125.94-46.524 167.13-121.1 63.558-115.06 106.13-117.44 167.13-121.1 116.01-6.948 238.92 37.153 347.7 124.35 270.22 216.62 482.45 504.35 460.16 833.98z" fill="url(#d)"/>
  <path d="m1082.2 298.94c-18.373 271.7 100.52 260.37 246.16 217.64 225.72-66.225 596.23 118.27 763.83 253.85 318.39 257.56 279.16 333.39 295.03 467.84 5.2762 44.692-22.09 88.639-116.87 157.16-84.958 61.424-85.579 144.29-86.321 190.59-0.688 42.9-18.896 87.438-117.04 176.18-48.504 43.861-21.868 181.21-81.036 165.78-59.734-15.574 6.9673-128.4 57.224-183.98 44.268-48.951 106.86-78.757 98.061-186.29-5.6266-68.792-6.7838-125.55 66.016-191.59 53.016-48.092 91.712-127.22 76.431-202.85-25.378-125.6-65.092-96.246-45.634-18.354 27.761 111.13-38.308 153.39-104.15 195.63-54.437 34.922-77.001 96.984-78.21 160.98-0.3705 19.618-16.962 86.118-124.03 174.24-51.052 42.018-35.737 153.76-104.13 166.2-63.77 11.604 30.807-119.49 84.889-173.99 46.084-46.445 85.603-100.02 89.273-176.53 3.1067-64.774-6.5134-124.12 80.824-181.45 62.582-41.073 94.942-103.16 91.72-176.93-5.6403-129.12-69.369-148.62-70.494-30.371-0.6684 70.22-23.408 131.33-91.982 161.31-81.247 35.527-100.69 99.608-105.01 170.26-4.3704 71.526-45.669 124.15-105.01 170.26-55.464 43.096-33.443 151.65-95.042 166.24-54.08 12.81-5.4268-109.28 72.671-174.47 53.822-44.923 75.162-107.73 82.64-178.49 6.1863-58.542-4.9758-122.59 82.64-178.49 51.602-32.922 82.213-87.251 78.256-175.95-8.327-186.64-77.196-122.13-74.433-29.366 2.6226 88.049-39.206 133.97-93.597 173.52-37.965 27.609-80.864 62.481-96.92 174.86-7.7721 54.399-17.252 103.74-96.919 174.86-50.9 45.437-29.09 175.6-96.92 174.86-63.966-0.696 21.199-126.6 76.621-183.16 66.514-67.881 77.815-125.67 76.621-183.16-1.5726-75.733 25.101-134.73 76.621-183.16 66.159-62.195 77.162-127.86 71.403-194.19-9.1597-105.5-57.54-149.72-67.748-25.603-9.1072 110.74-40.088 179.31-115.21 214.88-49.564 23.469-90.45 53.168-123.24 194.94-16.539 71.502-45.604 136.08-123.24 194.94-55.336 41.952-45.226 211.75-109.45 179.34-65.484-33.046 32.751-146.24 93.149-191.09 70.2-52.121 102.27-125.48 114.01-202.58 12.659-83.168 36.952-152.42 107.08-204.43 64.486-47.822 91.022-121.12 99.743-213.06 5.1431-54.22-50.556-170.56-65.5-18.01-9.0764 92.653-47.076 159.53-125.78 199.55-81.848 41.62-121.64 130.39-131.69 191.77-9.402 57.412 0.1195 74.028-131.52 194.47-56.336 51.546-49.12 189.78-123.81 190.59-71.702 0.7782 47.247-132.47 107.85-197.62 62.876-67.592 116.32-139.09 111.17-198.96-7.3973-86.104 51.8-161 110.98-202.15 36.022-25.048 103.46-122.1 105.87-211.32 4.0067-147.93-74.186-135.75-86.878-32.652-13.323 108.22-51.876 140.08-100.34 184.8-96.332 88.893-103.53 130.48-114.03 182.93-15.523 77.517-55.804 137.5-114.03 182.93-58.944 45.988-41.04 181.17-112.1 192.32-66.778 10.477 20.476-137.17 91.368-202.16 50.003-45.838 92.484-124.49 89.494-188.47-4.7841-102.37 17.511-140.28 88.829-199.29 52.894-43.763 120.52-125.15 91.096-184.49-43.012-86.752-205.4-126.71-414.46 39.504-62.233 49.479-225.2 111.24-178.51 591.68 7.2711 74.817-123.22 84.523-143.09 165.4-13.135 53.468-39.408 97.443-108.97 120.25-68.904 22.595-114.78 78.548-126.03 142.82-15.101 86.328-110.01 204.81-126.03 142.82-16.574-64.137 96.029-85.905 110.78-156.97 11.832-57.007 41.791-113.91 116.03-146.53 59.536-26.161 81.112-70.79 99.162-120.9 20.001-55.524 108.73-84.33 108.66-141.47-0.39117-290.14-18.33-306.35-45.747-47.972-6.0474 56.992-107.67 72.366-123.21 131-17.174 64.832-31.758 118.96-123.21 131-65.345 8.6006-107.77 70.154-123.21 131-15.912 62.726-84.703 183.23-123.21 131-38.956-52.848 98.644-93.511 110.68-141.77 14.289-57.268 25.993-115.53 110.68-141.77 66.459-20.586 104.91-59.565 110.68-141.77 4.8601-69.183 102.76-92.456 110.68-141.77 42.553-264.67 10.289-231.31-44.729-49.122-21.571 71.43-110.56 60.22-123.16 128.95-14.337 78.217-60.51 110.37-123.16 128.95-63.146 18.726-105.53 69.551-123.16 128.95-18.691 62.985-85.599 176.79-131.97 135.64-45.763-40.616 109.91-81.037 119.11-146.03 11.257-79.468 58.688-112.71 110.3-139.34 57.797-29.819 90.244-75.734 110.3-139.34 18.959-60.126 87.249-76.987 110.3-139.34 72.506-196.13 66.18-226.47-50.783-42.276-33.764 53.171-65.978 106.36-124.27 128.22-67.32 25.236-100.74 76.856-124.27 128.22-26.409 57.636-65.98 105.21-117.39 140.09-66.536 45.141-85.165 151.64-131.15 116.34-45.246-34.732 67.095-90.514 94.846-142.8 26.078-49.13 41.281-86.365 129.11-135.68 54.632-30.677 97.465-80.183 111.98-139.24 16.704-67.983 72.569-94.235 111.98-139.24 130.25-148.75 117.27-198.19-49.893-43.282-46.391 42.989-57.096 102.11-124.51 126.49-64.385 23.291-110.18 64.708-124.51 126.49-14.369 61.952-68.521 97.136-124.51 126.49-52.398 27.474-80.46 165.99-124.51 126.49-44.01-39.46 61.685-106.55 112.11-137.39 59.486-36.389 98.08-82.169 112.11-137.39 18.363-72.29 55.193-109.62 112.11-137.39 60.22-29.391 67.75-109.75 112.11-137.39 177.63-110.71 158.28-143.88-48.464-44.899-61.765 29.572-44.386 113.31-127.47 127.85-84.659 14.813-111.79 69.851-127.47 127.85-17.98 66.5-67.203 105.18-127.47 127.85-60.786 22.864-74.917 157.05-127.47 127.85-51.956-28.865 49.985-109.34 114.48-138.08 59.948-26.72 105.2-74.058 114.48-138.08 12.048-83.082 44.05-127.1 114.48-138.08 93.709-14.61 56.874-120.31 114.48-138.08 231.47-71.43 232.52-87.173-51.088-41.93-51.287 8.1817-39.434 103.95-124.84 113.05-61.021 6.5061-82.674 9.392-111.84 124.55-22.153 87.476-76.663 124.8-136.46 149.13-59.541 24.222-105.74 168.59-135.47 115.25-34.442-61.795 52.047-117.08 125.79-143.69 68.244-24.629 120.18-93.939 106.28-160.94-26.296-126.74 76.461-112.91 145.29-126.45 75.158-14.783 60.027-143.08 125.79-143.69 321.18-2.9965 456.64-27.681 567.37-252.12 68.426-138.7 117.99-342.13-0.8511-408.82-63.046-35.382-141.79 25.736-185.37 112.61-40.442 80.616-109.91 100.61-185.37 112.61-82.454 13.111-146.17 54.304-185.37 112.61-54.066 80.426-184.99 183.34-185.37 112.61-0.39056-73.628 131.7-71.367 171.55-131.49 39.965-60.283 91.322-111.96 171.55-131.49 75.202-18.302 132.33-62.509 171.55-131.49 36.762-64.645 90.534-111.46 171.55-131.49 70.723-17.485 135.08-117.61-55.745-83.609-69.298 12.349-132.5 54.013-184.66 132.3-51.838 77.805-107.91 125.33-184.66 132.3-80.861 7.3443-135.76 72.375-184.66 132.3-54.572 66.875-177.89 206.18-184.66 132.3-7.2367-78.893 132.8-86.339 175.48-149.95 42.334-63.095 80.215-129.92 175.48-149.95 82.643-17.374 143.41-72.701 175.48-149.95 40.145-96.687 117.24-140.03 175.48-149.95 139.77-23.808 64.943-88.426-42.158-60.155-69.012 18.217-136.03 45.761-183.49 126.66-51.214 87.297-116.77 108.77-183.49 126.66-75.102 20.135-143.8 62.888-183.49 126.66-50.043 80.398-161.48 196.94-183.49 126.66-22.602-72.158 138.4-72.881 174.08-139.74 50.815-95.209 111.79-118.04 174.08-139.74 74.083-25.811 156.76-80.947 174.08-139.74 32.908-111.71 113.15-127.29 174.08-139.74 154.02-31.489 106.94-74.398-28.414-67.073-74.233 4.0172-126.6 41.405-169.16 96.428-43.138 55.771-85.443 91.564-169.16 96.428-73.169 4.2509-132.5 47.116-169.16 96.428-41.646 56.028-155.38 163.08-169.16 96.428-14.337-69.379 125.7-66.505 160.32-116.63 35.753-51.757 78.714-99.068 160.32-116.63 65.109-14.012 122.28-49.096 160.32-116.63 56.123-99.629 95.998-107.93 160.32-116.63 124.03-16.769 116-88.256-44.546-66.081-58.912 8.1374-120.82 15.706-163.86 98.823-41.647 80.433-100.93 87.694-163.86 98.823-65.685 11.616-128.32 43.995-164.95 100.53-53.672 82.854-178.2 160.35-164.95 100.53 15.45-69.724 122.88-61.664 154.09-119.28 35.91-66.306 89.385-104 154.09-119.28 67.025-15.829 128.89-37.976 154.09-119.28 29.665-95.733 93.293-110.9 154.09-119.28 136.17-18.779 51.673-83.142-48.331-61.8-67.79 14.468-125.51 36.479-157.15 104.23-37.436 80.181-91.267 99.096-157.15 104.23-74.697 5.8204-127.45 52.925-170.79 109.24-55.215 71.742-170.29 171.08-170.79 109.24-0.52538-65.063 119.14-62.293 161.94-134.88 57.928-98.252 105.87-120.75 161.94-134.88 65.8-16.586 121.12-46.921 146.69-112.82 30.066-77.49 84.445-117.78 146.69-112.82 131.76 10.497 123.34-45.538-26.678-38.842-76.553 3.4169-127.09 41.276-164.58 93.976-54.46 76.566-105.54 94.411-164.58 93.976-91.935-0.67614-144.5 43.281-180.73 100.32-52.696 82.949-192.66 167.56-180.73 100.32 12.661-71.369 135.11-66.679 167.13-121.1 34.24-58.183 71.387-109.45 167.13-121.1 68.726-8.3642 125.94-46.524 167.13-121.1 63.558-115.06 106.13-117.44 167.13-121.1 116.01-6.948 238.92 37.153 347.7 124.35 270.22 216.62 482.45 504.35 460.16 833.98z" fill="url(#c)"/>
  <path d="m1199.1 275.53c411.8-305.67 657.22-128.16 1004.2-137.08-322.79 51.452-634.37 82.246-755.71 353.56-175.75 123-344.21-52.375-248.51-216.47z" fill="url(#e)"/>
  <path d="m1303.4 265.67c49.452-0.98732 103.07-20.184 140.34 32.102 41.182-80.763 129.85-108 217.42-136.47-130.97-4.3917-245.96 25.204-357.76 104.37z" fill="#fff"/>
  <path d="m1502.3 229.94c45.848-30.999 100.02-49.518 153.93-68.414-47.098-0.0331-94.955 1.0906-177.25 15.549-13.901 22.624-16.264 42.585 23.323 52.865z" stroke="#000"/>
  <path d="m1248.3 363.2c-18.373 271.7 100.52 260.37 246.16 217.64 225.72-66.225 596.23 118.27 763.83 253.85 318.39 257.56 279.16 333.39 295.03 467.84 5.2762 44.692-22.09 88.639-116.87 157.16-84.958 61.424-85.579 144.29-86.321 190.59-0.688 42.9-18.896 87.438-117.04 176.18-48.504 43.861-21.868 181.21-81.036 165.78-59.734-15.574 6.9673-128.4 57.224-183.98 44.268-48.951 106.86-78.757 98.061-186.29-5.6266-68.792-6.7838-125.55 66.016-191.59 53.016-48.092 91.712-127.22 76.431-202.85-25.378-125.6-65.092-96.246-45.634-18.354 27.761 111.13-38.308 153.39-104.15 195.63-54.437 34.922-77.001 96.984-78.21 160.98-0.3705 19.618-16.962 86.118-124.03 174.24-51.052 42.018-35.737 153.76-104.13 166.2-63.77 11.604 30.807-119.49 84.889-173.99 46.084-46.445 85.603-100.02 89.273-176.53 3.1067-64.774-6.5134-124.12 80.824-181.45 62.582-41.073 94.942-103.16 91.72-176.93-5.6403-129.12-69.369-148.62-70.494-30.371-0.6684 70.22-23.408 131.33-91.982 161.31-81.247 35.527-100.69 99.608-105.01 170.26-4.3704 71.526-45.669 124.15-105.01 170.26-55.464 43.096-33.443 151.65-95.042 166.24-54.08 12.81-5.4268-109.28 72.671-174.47 53.822-44.923 75.162-107.73 82.64-178.49 6.1863-58.542-4.9758-122.59 82.64-178.49 51.602-32.922 82.213-87.251 78.256-175.95-8.327-186.63-77.196-122.13-74.433-29.366 2.6226 88.049-39.206 133.97-93.597 173.52-37.965 27.609-80.864 62.481-96.92 174.86-7.7721 54.399-17.252 103.74-96.919 174.86-50.9 45.437-29.09 175.6-96.92 174.86-63.966-0.696 21.199-126.6 76.621-183.16 66.514-67.881 77.815-125.67 76.621-183.16-1.5726-75.733 25.101-134.73 76.621-183.16 66.159-62.195 77.162-127.86 71.403-194.19-9.1597-105.5-57.54-149.72-67.748-25.602-9.1072 110.74-40.088 179.31-115.21 214.88-49.564 23.469-90.45 53.168-123.24 194.94-16.539 71.502-45.604 136.08-123.24 194.94-55.336 41.952-45.226 211.75-109.45 179.34-65.484-33.046 32.751-146.24 93.149-191.09 70.2-52.121 102.27-125.48 114.01-202.58 12.659-83.168 36.952-152.42 107.08-204.43 64.486-47.822 91.022-121.12 99.743-213.06 5.1431-54.22-50.556-170.56-65.5-18.01-9.0764 92.653-47.076 159.53-125.78 199.55-81.848 41.62-121.64 130.39-131.69 191.77-9.402 57.412 0.1195 74.028-131.52 194.47-56.336 51.546-49.12 189.78-123.81 190.59-71.702 0.7782 47.247-132.47 107.85-197.62 62.876-67.592 116.32-139.09 111.17-198.96-7.3973-86.104 51.8-161 110.98-202.15 36.022-25.048 103.46-122.1 105.87-211.32 4.0067-147.93-74.186-135.75-86.878-32.652-13.323 108.22-51.876 140.08-100.34 184.8-96.332 88.893-103.53 130.48-114.03 182.93-15.523 77.517-55.804 137.5-114.03 182.93-58.944 45.988-41.04 181.17-112.1 192.32-66.778 10.477 20.476-137.17 91.368-202.16 50.003-45.838 92.484-124.49 89.494-188.47-4.7841-102.37 17.511-140.28 88.829-199.29 52.894-43.763 120.52-125.15 91.096-184.49-43.012-86.752-205.4-126.71-414.46 39.504-62.233 49.479-225.2 111.24-178.51 591.68 7.2711 74.817-123.22 84.523-143.09 165.4-13.135 53.468-39.408 97.443-108.97 120.25-68.904 22.595-114.78 78.548-126.03 142.82-15.101 86.328-110.01 204.81-126.03 142.82-16.574-64.137 96.029-85.905 110.78-156.97 11.832-57.007 41.791-113.91 116.03-146.53 59.536-26.161 81.112-70.79 99.162-120.9 20.001-55.524 108.74-84.33 108.66-141.47-0.3912-290.14-18.33-306.35-45.747-47.972-6.0474 56.992-107.67 72.366-123.21 131-17.174 64.832-31.758 118.96-123.21 131-65.345 8.6006-107.77 70.154-123.21 131-15.912 62.726-84.703 183.23-123.21 131-38.956-52.848 98.644-93.511 110.68-141.77 14.289-57.268 25.993-115.53 110.68-141.77 66.459-20.586 104.91-59.565 110.68-141.77 4.8601-69.183 102.76-92.456 110.68-141.77 42.553-264.67 10.289-231.31-44.729-49.122-21.571 71.43-110.56 60.22-123.16 128.95-14.337 78.217-60.51 110.37-123.16 128.95-63.146 18.726-105.53 69.551-123.16 128.95-18.691 62.985-85.599 176.79-131.97 135.64-45.764-40.616 109.91-81.037 119.11-146.03 11.257-79.468 58.688-112.71 110.3-139.34 57.797-29.819 90.244-75.734 110.3-139.34 18.959-60.126 87.249-76.987 110.3-139.34 72.506-196.13 66.18-226.47-50.783-42.276-33.764 53.171-65.978 106.36-124.27 128.22-67.32 25.236-100.74 76.856-124.27 128.22-26.409 57.636-65.98 105.21-117.39 140.09-66.536 45.141-85.165 151.64-131.15 116.34-45.246-34.732 67.095-90.514 94.846-142.8 26.078-49.13 41.281-86.365 129.11-135.68 54.632-30.677 97.465-80.183 111.98-139.24 16.704-67.983 72.569-94.235 111.98-139.24 130.25-148.75 117.27-198.19-49.893-43.282-46.391 42.989-57.096 102.11-124.51 126.49-64.385 23.291-110.18 64.708-124.51 126.49-14.369 61.952-68.521 97.136-124.51 126.49-52.398 27.474-80.46 165.99-124.51 126.49-44.01-39.46 61.685-106.55 112.11-137.39 59.486-36.389 98.08-82.169 112.11-137.39 18.363-72.29 55.194-109.62 112.11-137.39 60.22-29.391 67.75-109.75 112.11-137.39 177.63-110.71 158.28-143.88-48.464-44.899-61.765 29.572-44.386 113.31-127.47 127.85-84.659 14.813-111.79 69.851-127.47 127.85-17.98 66.5-67.203 105.18-127.47 127.85-60.786 22.864-74.918 157.05-127.47 127.85-51.956-28.865 49.985-109.34 114.48-138.08 59.948-26.72 105.2-74.058 114.48-138.08 12.048-83.082 44.05-127.1 114.48-138.08 93.709-14.61 56.874-120.31 114.48-138.08 231.47-71.43 232.52-87.173-51.088-41.93-51.287 8.1817-39.434 103.95-124.84 113.05-61.021 6.5061-82.674 9.392-111.84 124.55-22.153 87.476-76.663 124.8-136.46 149.13-59.541 24.222-105.74 168.59-135.47 115.25-34.442-61.795 52.047-117.08 125.79-143.69 68.244-24.629 120.18-93.939 106.28-160.94-26.296-126.74 76.461-112.91 145.29-126.45 75.158-14.783 60.027-143.08 125.79-143.69 321.18-2.9965 456.64-27.681 567.37-252.12 68.426-138.7 117.99-342.13-0.8511-408.82-63.046-35.382-141.79 25.736-185.37 112.61-40.442 80.616-109.91 100.61-185.37 112.61-82.454 13.111-146.17 54.304-185.37 112.61-54.066 80.426-184.99 183.34-185.37 112.61-0.3905-73.628 131.7-71.367 171.55-131.49 39.965-60.283 91.322-111.96 171.55-131.49 75.202-18.302 132.33-62.509 171.55-131.49 36.762-64.645 90.534-111.46 171.55-131.49 70.723-17.486 135.08-117.61-55.745-83.609-69.298 12.349-132.5 54.013-184.66 132.3-51.838 77.805-107.91 125.33-184.66 132.3-80.861 7.3443-135.76 72.375-184.66 132.3-54.572 66.875-177.89 206.18-184.66 132.3-7.2367-78.893 132.8-86.339 175.48-149.95 42.334-63.095 80.215-129.92 175.48-149.95 82.643-17.374 143.41-72.701 175.48-149.95 40.145-96.687 117.24-140.03 175.48-149.95 139.77-23.808 64.943-88.426-42.158-60.155-69.012 18.217-136.03 45.761-183.49 126.66-51.214 87.297-116.77 108.77-183.49 126.66-75.102 20.134-143.8 62.888-183.49 126.66-50.043 80.398-161.48 196.94-183.49 126.66-22.602-72.158 138.4-72.881 174.08-139.74 50.815-95.209 111.79-118.04 174.08-139.74 74.083-25.81 156.76-80.947 174.08-139.74 32.908-111.71 113.15-127.29 174.08-139.74 154.02-31.489 106.94-74.398-28.414-67.073-74.233 4.0172-126.6 41.406-169.16 96.427-43.138 55.771-85.443 91.564-169.16 96.428-73.169 4.2509-132.5 47.116-169.16 96.428-41.646 56.028-155.38 163.08-169.16 96.428-14.337-69.379 125.7-66.505 160.32-116.63 35.753-51.758 78.714-99.068 160.32-116.63 65.109-14.012 122.28-49.096 160.32-116.63 56.123-99.629 95.998-107.93 160.32-116.63 124.03-16.769 116-88.256-44.546-66.081-58.912 8.1373-120.82 15.706-163.86 98.823-41.647 80.433-100.93 87.694-163.86 98.823-65.685 11.616-128.32 43.995-164.95 100.53-53.672 82.854-178.2 160.35-164.95 100.53 15.45-69.724 122.88-61.664 154.09-119.28 35.91-66.306 89.385-104 154.09-119.28 67.025-15.829 128.89-37.976 154.09-119.28 29.665-95.733 93.293-110.9 154.09-119.28 136.17-18.779 51.673-83.142-48.331-61.8-67.79 14.468-125.51 36.48-157.15 104.23-37.436 80.181-91.267 99.096-157.15 104.23-74.697 5.8204-127.45 52.925-170.79 109.24-55.215 71.742-170.29 171.08-170.79 109.24-0.5254-65.063 119.14-62.293 161.94-134.88 57.928-98.252 105.87-120.75 161.94-134.88 65.8-16.586 121.12-46.921 146.69-112.82 30.066-77.49 84.445-117.78 146.69-112.82 131.76 10.497 123.34-45.538-26.678-38.842-76.553 3.4168-127.09 41.276-164.58 93.976-54.46 76.566-105.54 94.411-164.58 93.976-91.935-0.6761-144.5 43.281-180.73 100.32-52.696 82.949-192.66 167.56-180.73 100.32 12.661-71.369 135.11-66.679 167.13-121.1 34.24-58.183 71.387-109.45 167.13-121.1 68.726-8.3642 125.94-46.524 167.13-121.1 63.558-115.06 106.13-117.44 167.13-121.1 116.01-6.9479 238.92 37.153 347.7 124.35 270.22 216.62 482.45 504.35 460.16 833.98z" fill="url(#b)"/>
 </g>
</svg>
